<?xml version="1.0" encoding="UTF-8"?>
<svg version="1.1" xmlns="http://www.w3.org/2000/svg" width="196" height="174">
<path d="M0 0 C59.4 0 118.8 0 180 0 C180 13.53 180 27.06 180 41 C120.6 41 61.2 41 0 41 C0 27.47 0 13.94 0 0 Z " fill="#FBFBFB" transform="translate(16,133)"/>
<path d="M0 0 C2.4375 1.875 2.4375 1.875 4 4 C4 4.66 4 5.32 4 6 C4.66 6 5.32 6 6 6 C6.433125 5.071875 6.433125 5.071875 6.875 4.125 C8 2 8 2 10 0 C14.51406271 -0.84250679 18.03927336 -0.52937999 22.0625 1.6875 C25.09953829 6.87985578 24.38698276 12.1264616 24 18 C21.75106046 18.10823773 19.50062425 18.18569645 17.25 18.25 C15.37054688 18.31960937 15.37054688 18.31960937 13.453125 18.390625 C10 18 10 18 7.546875 15.984375 C7.03640625 15.32953125 6.5259375 14.6746875 6 14 C5.67 15.65 5.34 17.3 5 19 C2.69 19 0.38 19 -2 19 C-2 14.71 -2 10.42 -2 6 C-3.32 6 -4.64 6 -6 6 C-6 10.29 -6 14.58 -6 19 C-7.98 19 -9.96 19 -12 19 C-12.08150744 16.93816367 -12.1394194 14.87538651 -12.1875 12.8125 C-12.22230469 11.66394531 -12.25710937 10.51539063 -12.29296875 9.33203125 C-11.97323533 5.6955965 -11.18158273 3.8894086 -9 1 C-5.90826248 -0.54586876 -3.40570448 -0.29359521 0 0 Z " fill="#2B2B2B" transform="translate(60,146)"/>
<path d="M0 0 C4.20335872 0.87569973 6.11528055 2.47193456 9 5.625 C9.875 9.4375 9.875 9.4375 10 12.625 C7.36 12.955 4.72 13.285 2 13.625 C4.31 13.625 6.62 13.625 9 13.625 C7.63016497 16.78615776 7.0109362 17.6177092 4 19.625 C-2.72311828 20.39650538 -2.72311828 20.39650538 -5.85546875 18.50390625 C-7.5 17.125 -7.5 17.125 -10 14.625 C-10.680625 15.45 -11.36125 16.275 -12.0625 17.125 C-15 19.625 -15 19.625 -18.5625 20.1875 C-22.49416151 19.54413721 -23.65590239 18.78051602 -26 15.625 C-27.04976964 12.47569107 -27.10131595 10.23685544 -27.0625 6.9375 C-27.05347656 5.94363281 -27.04445312 4.94976562 -27.03515625 3.92578125 C-27.02355469 3.16652344 -27.01195312 2.40726563 -27 1.625 C-25.02 1.625 -23.04 1.625 -21 1.625 C-21 5.585 -21 9.545 -21 13.625 C-19.68 13.295 -18.36 12.965 -17 12.625 C-16.67 8.995 -16.34 5.365 -16 1.625 C-14.02 1.625 -12.04 1.625 -10 1.625 C-9.67 2.945 -9.34 4.265 -9 5.625 C-7.700625 4.3875 -7.700625 4.3875 -6.375 3.125 C-4.05830348 1.22161084 -3.02885052 0.63101052 0 0 Z " fill="#2E2E2E" transform="translate(158,144.375)"/>
<path d="M0 0 C3.40125702 1.09510169 4.90074554 2.85932467 7.0625 5.6640625 C7.54138066 8.5938603 7.72339951 10.82510663 7.625 13.7265625 C7.63595703 14.43361328 7.64691406 15.14066406 7.65820312 15.86914062 C7.6100368 19.28894993 7.29496676 21.33819849 5.29296875 24.14453125 C1.74390312 26.56237106 -0.73269499 25.94438283 -4.9375 25.6640625 C-4.9375 24.0140625 -4.9375 22.3640625 -4.9375 20.6640625 C-2.9575 20.3340625 -0.9775 20.0040625 1.0625 19.6640625 C0.44761719 19.56609375 -0.16726562 19.468125 -0.80078125 19.3671875 C-7.30257937 18.164303 -7.30257937 18.164303 -10 16.0390625 C-11.38568641 12.52865692 -11.69242331 9.3297959 -10.9375 5.6640625 C-7.88448391 1.08453837 -5.22892755 0.10542193 0 0 Z " fill="#202020" transform="translate(122.9375,145.3359375)"/>
<path d="M0 0 C2.85356909 0.69662175 4.66603278 1.98815842 6.36328125 4.39453125 C8.05079266 8.9111059 7.50491215 13.792696 7.16015625 18.52734375 C4.91121671 18.63558148 2.6607805 18.7130402 0.41015625 18.77734375 C-1.46929687 18.84695312 -1.46929687 18.84695312 -3.38671875 18.91796875 C-6.83984375 18.52734375 -6.83984375 18.52734375 -9.2265625 16.7890625 C-11.78802352 13.1980554 -12.26620837 9.88401496 -11.83984375 5.52734375 C-8.83877611 0.62559994 -5.49176916 -0.37589739 0 0 Z " fill="#1F1F1F" transform="translate(39.83984375,145.47265625)"/>
<path d="M0 0 C3.42156426 0.71052645 4.81183604 1.6124098 6.9375 4.40234375 C7.64093488 7.87339129 7.64093488 10.93129621 6.9375 14.40234375 C4.81183604 17.1922777 3.42156426 18.09416105 0 18.8046875 C-3.93385643 19.11015741 -5.71648273 18.63302193 -9.0625 16.40234375 C-11.28175086 13.07346746 -11.82140933 11.26297867 -11.5390625 7.33984375 C-10.06510018 1.34734121 -5.60365084 -0.43513198 0 0 Z " fill="#202020" transform="translate(103.0625,145.59765625)"/>
<path d="M0 0 C2.2109375 1.56640625 2.2109375 1.56640625 4 4 C4.390625 7.453125 4.390625 7.453125 4.25 11.25 C4.21390625 12.51328125 4.1778125 13.7765625 4.140625 15.078125 C4.07101563 16.52445313 4.07101563 16.52445313 4 18 C2.35 18 0.7 18 -1 18 C-1.33 14.37 -1.66 10.74 -2 7 C-3.32 6.67 -4.64 6.34 -6 6 C-6 10.29 -6 14.58 -6 19 C-7.98 19 -9.96 19 -12 19 C-12.08150744 16.93816367 -12.1394194 14.87538651 -12.1875 12.8125 C-12.22230469 11.66394531 -12.25710937 10.51539063 -12.29296875 9.33203125 C-11.97323533 5.6955965 -11.18158273 3.8894086 -9 1 C-5.90826248 -0.54586876 -3.40570448 -0.29359521 0 0 Z " fill="#1F1F1F" transform="translate(60,146)"/>
<path d="M0 0 C1.98 0 3.96 0 6 0 C6 3.96 6 7.92 6 12 C7.32 11.67 8.64 11.34 10 11 C10.33 7.37 10.66 3.74 11 0 C12.65 0 14.3 0 16 0 C16.10823773 2.24893954 16.18569645 4.49937575 16.25 6.75 C16.29640625 8.00296875 16.3428125 9.2559375 16.390625 10.546875 C16 14 16 14 14.203125 16.421875 C10.9936245 18.72087891 8.84919009 18.5498843 5 18 C2.09282927 15.78136971 1.16018357 14.48055071 0 11 C-0.0685495 9.10529184 -0.08480372 7.2083166 -0.0625 5.3125 C-0.05347656 4.31863281 -0.04445312 3.32476562 -0.03515625 2.30078125 C-0.02355469 1.54152344 -0.01195312 0.78226563 0 0 Z " fill="#1E1E1E" transform="translate(131,146)"/>
<path d="M0 0 C1.98 0 3.96 0 6 0 C6 9.24 6 18.48 6 28 C4.02 28 2.04 28 0 28 C0 18.76 0 9.52 0 0 Z " fill="#202020" transform="translate(85,136)"/>
<path d="M0 0 C1.2065625 0.0309375 1.2065625 0.0309375 2.4375 0.0625 C2.81968767 1.71864657 3.15145102 3.38707024 3.4375 5.0625 C2.4375 6.0625 2.4375 6.0625 -0.125 6.125 C-1.3315625 6.0940625 -1.3315625 6.0940625 -2.5625 6.0625 C-2.94468767 4.40635343 -3.27645102 2.73792976 -3.5625 1.0625 C-2.5625 0.0625 -2.5625 0.0625 0 0 Z " fill="#EEEEEE" transform="translate(101.5625,151.9375)"/>
<path d="M0 0 C1.2065625 0.0309375 1.2065625 0.0309375 2.4375 0.0625 C2.81968767 1.71864657 3.15145102 3.38707024 3.4375 5.0625 C2.4375 6.0625 2.4375 6.0625 -0.125 6.125 C-1.3315625 6.0940625 -1.3315625 6.0940625 -2.5625 6.0625 C-2.94468767 4.40635343 -3.27645102 2.73792976 -3.5625 1.0625 C-2.5625 0.0625 -2.5625 0.0625 0 0 Z " fill="#F0F0F0" transform="translate(74.5625,151.9375)"/>
<path d="M0 0 C1.2065625 0.0309375 1.2065625 0.0309375 2.4375 0.0625 C2.81968767 1.71864657 3.15145102 3.38707024 3.4375 5.0625 C2.4375 6.0625 2.4375 6.0625 -0.125 6.125 C-1.3315625 6.0940625 -1.3315625 6.0940625 -2.5625 6.0625 C-2.94468767 4.40635343 -3.27645102 2.73792976 -3.5625 1.0625 C-2.5625 0.0625 -2.5625 0.0625 0 0 Z " fill="#F2F2F2" transform="translate(37.5625,151.9375)"/>
<path d="M0 0 C1.65 0.33 3.3 0.66 5 1 C4.67 2.65 4.34 4.3 4 6 C2.35 5.67 0.7 5.34 -1 5 C-0.67 3.35 -0.34 1.7 0 0 Z " fill="#FFFFFF" transform="translate(119,152)"/>
<path d="M0 0 C1.32 0 2.64 0 4 0 C4 1.32 4 2.64 4 4 C2.68 4 1.36 4 0 4 C0 2.68 0 1.36 0 0 Z " fill="#E51A1A" transform="translate(1,1)"/>
</svg>
